<?xml version="1.0" standalone="no"?><!DOCTYPE svg PUBLIC "-//W3C//DTD SVG 1.1//EN" "http://www.w3.org/Graphics/SVG/1.1/DTD/svg11.dtd"><svg t="1515418828611" class="icon" style="" viewBox="0 0 1024 1024" version="1.1" xmlns="http://www.w3.org/2000/svg" p-id="697" xmlns:xlink="http://www.w3.org/1999/xlink" width="48" height="48"><defs><style type="text/css"></style></defs><path d="M143.36 471.04h40.96a40.96 40.96 0 1 1 0 81.92H143.36a40.96 40.96 0 1 1 0-81.92z m0-245.76h40.96a40.96 40.96 0 1 1 0 81.92H143.36a40.96 40.96 0 1 1 0-81.92z m0 491.52h40.96a40.96 40.96 0 1 1 0 81.92H143.36a40.96 40.96 0 1 1 0-81.92z m20.48 122.88h20.48a81.92 81.92 0 1 0 0-163.84H163.84v-81.92h20.48a81.92 81.92 0 1 0 0-163.84H163.84v-81.92h20.48a81.92 81.92 0 1 0 0-163.84H163.84a81.92 81.92 0 0 1 81.92-81.92h552.96a81.92 81.92 0 0 1 81.92 81.92v655.36a81.92 81.92 0 0 1-81.92 81.92H245.76a81.92 81.92 0 0 1-81.92-81.92z m569.01632-530.00192a61.44 61.44 0 0 0-86.89664 0L355.08224 600.55552a20.48 20.48 0 0 0-5.9392 13.02528l-4.44416 62.3616a20.48 20.48 0 0 0 21.87264 21.89312l62.38208-4.44416a20.48 20.48 0 0 0 13.02528-5.9392l290.87744-290.87744a61.44 61.44 0 0 0 0-86.89664z" fill="#cdcdcd" p-id="698"></path></svg>